<svg xmlns="http://www.w3.org/2000/svg" width="170" height="95.889" viewBox="0 0 170 95.889">
  <g id="シンボル_44_1" data-name="シンボル 44 – 1" transform="translate(-436.5 -4760.946)">
    <path id="パス_514" data-name="パス 514" d="M27.844,21.97V2.937a3.117,3.117,0,0,1,.678-2.2A2.148,2.148,0,0,1,30.216,0a2.186,2.186,0,0,1,1.751.734,3.213,3.213,0,0,1,.678,2.2V21.97a3.274,3.274,0,0,1-.678,2.259,2.186,2.186,0,0,1-1.751.734,2.148,2.148,0,0,1-1.694-.734A3.274,3.274,0,0,1,27.844,21.97ZM157.8,24.963a12.356,12.356,0,0,1-12.2-12.482,12.2,12.2,0,1,1,24.4,0A12.356,12.356,0,0,1,157.8,24.963Zm0-19.88a7.317,7.317,0,0,0-7.229,7.4,7.231,7.231,0,1,0,14.458,0A7.317,7.317,0,0,0,157.8,5.083Zm-54.727,19.88a12.356,12.356,0,0,1-12.2-12.482,12.2,12.2,0,1,1,24.4,0,12.356,12.356,0,0,1-12.2,12.482Zm0-19.88a7.317,7.317,0,0,0-7.229,7.4,7.231,7.231,0,1,0,14.458,0,7.317,7.317,0,0,0-7.229-7.4Zm38.631,7.4h0a12.525,12.525,0,0,0-2.372-7.342A12.1,12.1,0,0,0,129.844.056H123.4a2.864,2.864,0,0,0-2.259.734,3.5,3.5,0,0,0-.678,2.372V21.914a3.5,3.5,0,0,0,.678,2.372,2.944,2.944,0,0,0,2.259.734h6.439a12.1,12.1,0,0,0,9.488-5.083,12.735,12.735,0,0,0,2.372-7.455Zm-11.3,7.342c-.565.056-1.243.056-1.92.056h-3.219V5.083h3.219c.678,0,1.3,0,1.92.056A7.322,7.322,0,0,1,135.491,8.3a7.621,7.621,0,0,1,1.3,4.179v.056a7.063,7.063,0,0,1-1.3,4.179,7.074,7.074,0,0,1-5.083,3.106ZM83.983.113a2.02,2.02,0,0,0-2.372.9L74.269,12.482,66.927,1.017a2.093,2.093,0,0,0-2.372-.9A2.187,2.187,0,0,0,63.03,2.2V22.535a2.093,2.093,0,1,0,4.179,0V9.488l5.2,8.133h0v.056c.056.056.056.113.113.169l.056.056.113.113.169.056.056.056.113.113h.056c.056.056.113.056.169.113h.056c.056,0,.056.056.113.056a1.5,1.5,0,0,0,.678.169h.339a2.979,2.979,0,0,0,.678-.169c.056,0,.056-.056.113-.056h.056c.056-.056.113-.056.169-.113h.056c.056-.056.113-.056.113-.113l.056-.056.113-.056.113-.113.056-.056c.056-.056.056-.113.113-.169v-.056h0l5.2-8.133v13.1a2.093,2.093,0,1,0,4.179,0V2.259A2.093,2.093,0,0,0,83.983.113ZM55.857,24.173H40.043a2.279,2.279,0,0,1-2.09-1.355,2.728,2.728,0,0,1,.339-2.824L51.226,4.631H40.551a2.178,2.178,0,0,1-2.09-2.316A1.97,1.97,0,0,1,40.551.282h14.4a2.888,2.888,0,0,1,2.429.96,2.978,2.978,0,0,1-.113,3.445L44.787,19.6h11.07a2.136,2.136,0,0,1,2.033,2.316,2.118,2.118,0,0,1-2.033,2.259Zm-43.771.791a11.825,11.825,0,0,1-8.98-4.01A12.669,12.669,0,0,1,0,12.708,12.248,12.248,0,0,1,12.256,0,15.392,15.392,0,0,1,20.5,2.429,2.36,2.36,0,0,1,21.123,5.7a2.29,2.29,0,0,1-3.163.678,11.046,11.046,0,0,0-5.7-1.638c-2.937,0-7.06,2.033-7.06,7.963,0,3.389,2.485,7.4,7,7.4a9.8,9.8,0,0,0,5.365-1.355v-3.5h-3.5a2.375,2.375,0,0,1-2.316-2.372A2.338,2.338,0,0,1,14.063,10.5H19.88A2.375,2.375,0,0,1,22.2,12.877v7.06a2.391,2.391,0,0,1-.678,1.694,14.006,14.006,0,0,1-9.432,3.332Z" transform="translate(436.5 4760.946)" fill="#fff"/>
    <path id="パス_515" data-name="パス 515" d="M89.85,80.892,40.431,84.45c-2.542.169-4.631,1.977-4.631,4.01s2.09,3.558,4.631,3.445l49.362-1.92a4.878,4.878,0,0,0,4.631-4.8A4.2,4.2,0,0,0,89.85,80.892Z" transform="translate(420.919 4725.745)" fill="#fff"/>
    <g id="グループ化_1566" data-name="グループ化 1566" transform="translate(481.457 4821.152)">
      <path id="パス_516" data-name="パス 516" d="M84.231,106.6c-2.542,0-4.631,1.864-4.631,4.066l.056,26.827a4.891,4.891,0,0,0,3.615,4.744c1.977.339,3.671-1.243,3.784-3.558l1.638-27.844A4.251,4.251,0,0,0,84.231,106.6Z" transform="translate(-79.6 -106.6)" fill="#fff"/>
    </g>
    <g id="グループ化_1567" data-name="グループ化 1567" transform="translate(518.26 4795.361)">
      <path id="パス_517" data-name="パス 517" d="M209.847,62.1c-1.92,1.92-6.721,6.89-6.721,6.947L166.98,106.1a1.9,1.9,0,0,1-1.751.678c-.113,0-.169-.056-.282-.056-.621-.226-.621-.508-1.13-1.13L154.894,89.1a9.331,9.331,0,0,0-3.163-3.219,5.627,5.627,0,0,0-3.558-.565,4.3,4.3,0,0,0-3.389,4.066,6.751,6.751,0,0,0,.226,2.146l15.644,26.545a7.154,7.154,0,0,1,.339,1.017c.282,1.13.9,1.243,2.033,2.033,1.017.678,2.146,1.468,3.05,1.186a2.234,2.234,0,0,0,.847-.565L205.329,75.6c.056-.113,7.116-9.149,7.907-10.11C215.89,62.045,212.671,59.278,209.847,62.1Z" transform="translate(-144.764 -60.936)" fill="#fff"/>
    </g>
  </g>
</svg>
